<svg width="20" height="22" viewBox="0 0 20 22" fill="none" xmlns="http://www.w3.org/2000/svg">
<g id="Group 1">
<path id="Vector" d="M19.3763 11.6782C19.2939 11.6787 19.2122 11.6625 19.1359 11.6303C19.0596 11.5982 18.9902 11.5509 18.9317 11.4911L9.98265 2.26135L1.03359 11.4911C0.913791 11.5968 0.759687 11.6521 0.602075 11.6458C0.444464 11.6395 0.294955 11.5722 0.183424 11.4572C0.0718927 11.3423 0.00655488 11.1882 0.000467043 11.0257C-0.00562079 10.8633 0.0479897 10.7045 0.150585 10.581L9.54428 0.89948C9.66161 0.779267 9.82034 0.711792 9.98578 0.711792C10.1512 0.711792 10.3099 0.779267 10.4273 0.89948L19.821 10.581C19.9072 10.6716 19.9655 10.7864 19.9887 10.911C20.012 11.0356 19.9991 11.1645 19.9516 11.2816C19.9042 11.3986 19.8243 11.4987 19.722 11.5693C19.6197 11.6398 19.4994 11.6777 19.3763 11.6782Z" fill="#62FEC9"/>
<path id="Vector_2" d="M9.98261 4.44293L2.46765 12.214V20.0689C2.46765 20.4113 2.59961 20.7396 2.8345 20.9817C3.06939 21.2238 3.38796 21.3598 3.72014 21.3598H8.10387V14.9054H11.8613V21.3598H16.2451C16.5772 21.3598 16.8958 21.2238 17.1307 20.9817C17.3656 20.7396 17.4976 20.4113 17.4976 20.0689V12.1688L9.98261 4.44293Z" fill="#62FEC9"/>
</g>
</svg>
