<svg width="20" height="22" viewBox="0 0 20 22" fill="none" xmlns="http://www.w3.org/2000/svg">
<g id="bi:linkedin" clip-path="url(#clip0_1_35)">
<rect width="20" height="20.6479" transform="translate(0 0.731201)" fill="#13131F"/>
<path id="Vector" d="M0 2.21011C0 1.39323 0.6575 0.731201 1.46875 0.731201H18.5312C19.3425 0.731201 20 1.39323 20 2.21011V19.9002C20 20.7171 19.3425 21.3791 18.5312 21.3791H1.46875C0.6575 21.3791 0 20.7171 0 19.9002V2.21011ZM6.17875 18.0161V8.69228H3.1775V18.0161H6.17875ZM4.67875 7.41856C5.725 7.41856 6.37625 6.70362 6.37625 5.80802C6.3575 4.89305 5.72625 4.19748 4.69875 4.19748C3.67125 4.19748 3 4.89434 3 5.80802C3 6.70362 3.65125 7.41856 4.65875 7.41856H4.67875ZM10.8138 18.0161V12.809C10.8138 12.5302 10.8337 12.2515 10.9137 12.0527C11.13 11.4965 11.6238 10.9197 12.4538 10.9197C13.54 10.9197 13.9737 11.774 13.9737 13.0283V18.0161H16.975V12.6683C16.975 9.80339 15.495 8.4716 13.52 8.4716C11.9275 8.4716 11.2138 9.37495 10.8138 10.0112V10.0434H10.7938C10.8004 10.0327 10.8071 10.0219 10.8138 10.0112V8.69228H7.81375C7.85125 9.56723 7.81375 18.0161 7.81375 18.0161H10.8138Z" fill="#62FEC9"/>
</g>
<defs>
<clipPath id="clip0_1_35">
<rect width="20" height="20.6479" fill="white" transform="translate(0 0.731201)"/>
</clipPath>
</defs>
</svg>
