<svg width="15" height="17" viewBox="0 0 15 17" fill="none" xmlns="http://www.w3.org/2000/svg">
<path id="Vector" d="M13.3333 15.3H1.66667V5.95H13.3333M10.8333 0V1.7H4.16667V0H2.5V1.7H1.66667C0.741667 1.7 0 2.4565 0 3.4V15.3C0 15.7509 0.175595 16.1833 0.488155 16.5021C0.800716 16.8209 1.22464 17 1.66667 17H13.3333C13.7754 17 14.1993 16.8209 14.5118 16.5021C14.8244 16.1833 15 15.7509 15 15.3V3.4C15 2.94913 14.8244 2.51673 14.5118 2.19792C14.1993 1.87911 13.7754 1.7 13.3333 1.7H12.5V0M11.6667 9.35H7.5V13.6H11.6667V9.35Z" fill="#62FEC9"/>
</svg>
