<svg width="20" height="21" viewBox="0 0 20 21" fill="none" xmlns="http://www.w3.org/2000/svg">
<path id="Vector" d="M10 0.221558C8.68678 0.221558 7.38642 0.495225 6.17317 1.02693C4.95991 1.55864 3.85752 2.33798 2.92893 3.32045C1.05357 5.30464 0 7.99578 0 10.8018C0 15.4783 2.87 19.4459 6.84 20.8531C7.34 20.9378 7.5 20.6098 7.5 20.3241V18.536C4.73 19.1709 4.14 17.1183 4.14 17.1183C3.68 15.891 3.03 15.563 3.03 15.563C2.12 14.907 3.1 14.9282 3.1 14.9282C4.1 15.0022 4.63 16.0179 4.63 16.0179C5.5 17.6261 6.97 17.15 7.54 16.8961C7.63 16.2084 7.89 15.7428 8.17 15.4783C5.95 15.2138 3.62 14.3039 3.62 10.2728C3.62 9.09842 4 8.15677 4.65 7.40557C4.55 7.14107 4.2 6.04072 4.75 4.61238C4.75 4.61238 5.59 4.32671 7.5 5.69157C8.29 5.4588 9.15 5.34242 10 5.34242C10.85 5.34242 11.71 5.4588 12.5 5.69157C14.41 4.32671 15.25 4.61238 15.25 4.61238C15.8 6.04072 15.45 7.14107 15.35 7.40557C16 8.15677 16.38 9.09842 16.38 10.2728C16.38 14.3145 14.04 15.2032 11.81 15.4678C12.17 15.7957 12.5 16.4411 12.5 17.4251V20.3241C12.5 20.6098 12.66 20.9483 13.17 20.8531C17.14 19.4354 20 15.4783 20 10.8018C20 9.41242 19.7413 8.0366 19.2388 6.75294C18.7362 5.46928 17.9997 4.30292 17.0711 3.32045C16.1425 2.33798 15.0401 1.55864 13.8268 1.02693C12.6136 0.495225 11.3132 0.221558 10 0.221558Z" fill="#62FEC9"/>
</svg>
