<svg width="20" height="18" viewBox="0 0 20 18" fill="none" xmlns="http://www.w3.org/2000/svg">
<path id="mail" d="M2 17.4311C1.45 17.4311 0.979002 17.2287 0.587002 16.824C0.195002 16.4193 -0.000664969 15.9334 1.69779e-06 15.3663V2.97752C1.69779e-06 2.4097 0.196002 1.92344 0.588002 1.51874C0.980002 1.11404 1.45067 0.912033 2 0.912721H18C18.55 0.912721 19.021 1.11507 19.413 1.51977C19.805 1.92447 20.0007 2.41039 20 2.97752V15.3663C20 15.9341 19.804 16.4204 19.412 16.8251C19.02 17.2298 18.5493 17.4318 18 17.4311H2ZM10 10.2043L18 5.04231V2.97752L10 8.1395L2 2.97752V5.04231L10 10.2043Z" fill="#62FEC9"/>
</svg>
