<svg width="16" height="21" viewBox="0 0 16 21" fill="none" xmlns="http://www.w3.org/2000/svg">
<path id="phone" d="M15.2541 3.50354L13.1862 0.837352C13.0403 0.648272 12.867 0.498249 12.676 0.395903C12.4851 0.293556 12.2804 0.240903 12.0736 0.240967C11.6523 0.240967 11.2561 0.453962 10.9591 0.837352L8.73385 3.70902C8.58734 3.89727 8.47109 4.12103 8.39178 4.36743C8.31247 4.61384 8.27167 4.87804 8.27172 5.14485C8.27172 5.68862 8.43677 6.1998 8.73385 6.58319L10.361 8.68307C9.98013 9.76649 9.45058 10.7521 8.79793 11.5923C8.14691 12.4366 7.38324 13.1225 6.54359 13.617L4.91643 11.5172C4.77056 11.3281 4.59717 11.178 4.40624 11.0757C4.2153 10.9734 4.01058 10.9207 3.80383 10.9208C3.38247 10.9208 2.98636 11.1338 2.68928 11.5172L0.46213 14.3863C0.315435 14.5749 0.199085 14.7991 0.119775 15.0459C0.0404646 15.2928 -0.000240616 15.5574 1.06996e-06 15.8247C1.06996e-06 16.3684 0.165047 16.8796 0.46213 17.263L2.52618 19.9267C2.99996 20.5406 3.65431 20.8889 4.32615 20.8889C4.4679 20.8889 4.60382 20.8739 4.73779 20.8438C7.35523 20.2875 9.95131 18.4908 12.0464 15.7896C14.1396 13.0908 15.5299 9.74303 15.9668 6.35516C16.0988 5.32026 15.8328 4.25529 15.2541 3.50354Z" fill="#62FEC9"/>
</svg>
